<?xml version="1.0" encoding="UTF-8" standalone="no"?>
<svg
   height="21"
   viewBox="0 0 75 21"
   width="75"
   version="1.1"
   id="svg10"
   sodipodi:docname="paft_logo.svg"
   inkscape:version="1.3.2 (091e20e, 2023-11-25)"
   xmlns:inkscape="http://www.inkscape.org/namespaces/inkscape"
   xmlns:sodipodi="http://sodipodi.sourceforge.net/DTD/sodipodi-0.dtd"
   xmlns="http://www.w3.org/2000/svg"
   xmlns:svg="http://www.w3.org/2000/svg">
  <defs
     id="defs10" />
  <sodipodi:namedview
     id="namedview10"
     pagecolor="#505050"
     bordercolor="#eeeeee"
     borderopacity="1"
     inkscape:showpageshadow="0"
     inkscape:pageopacity="0"
     inkscape:pagecheckerboard="0"
     inkscape:deskcolor="#505050"
     showguides="false"
     inkscape:zoom="9.0188593"
     inkscape:cx="37.865099"
     inkscape:cy="10.311725"
     inkscape:window-width="1392"
     inkscape:window-height="847"
     inkscape:window-x="53"
     inkscape:window-y="25"
     inkscape:window-maximized="0"
     inkscape:current-layer="g10" />
  <mask
     id="a"
     fill="#fff">
    <path
       d="m0 21.6718912h74.8857626v-21.28596488h-74.8857626z"
       fill="#fff"
       fill-rule="evenodd"
       id="path1" />
  </mask>
  <g
     fill="#fff"
     fill-rule="evenodd"
     transform="translate(0 -1)"
     id="g10">
    <path
       d="m17.7429834 16.9483754c-1.6546193 2.827579-4.7164347 4.7234386-8.21999494 4.7234386-5.26015033 0-9.5229115-4.2749473-9.5229115-9.5518596 0-5.27536844 4.26276117-9.55263159 9.5229115-9.55263159h.05464091l-8.78102636 8.94705259h4.99656562v5.434z"
       id="path2" />
    <path
       id="path3"
       d="M 12.873047,1.296875 4.28125,10.050781 h 2.9707031 v 5.435547 H 18.240234 v -5.435547 h 2.970704 z m 2.207031,4.6113281 c 0.277197,0 0.554688,0.2753979 0.554688,0.8242188 v 1.3808593 c 0.01539,0.074895 -0.0066,0.316937 -0.0078,0.5117188 0.02513,-7.811e-4 0.03517,-5.265e-4 0.06836,-0.00195 0.482528,-0.038609 0.962029,-0.09808 1.441407,-0.1640625 1.087389,-0.1496707 1.237781,0.9479892 0.15039,1.0976562 -0.514865,0.070866 -1.028409,0.1367623 -1.546875,0.1757813 -0.398688,0.014857 -0.782813,0.00844 -1.011718,-0.2890625 -0.188736,0.3056697 -0.420092,0.5768936 -0.767578,0.7187496 -0.07453,0.02044 -0.14851,0.04707 -0.22461,0.06055 -0.34471,0.06105 -0.688545,-0.02968 -1.02539,-0.09375 -0.443974,-0.114011 -0.886033,-0.2605019 -1.107422,-0.6992185 -0.05623,-0.1329532 -0.09977,-0.2679878 -0.13086,-0.40625 -0.375872,0.071843 -0.719081,-0.3238296 -0.474609,-0.9824219 0.09817,-0.2644596 0.04473,-0.1310038 0.162109,-0.3984375 0.210317,-0.4042342 0.460641,-0.7914687 0.810547,-1.0898437 0.292637,-0.2101886 0.606519,-0.3556143 0.957031,-0.3691406 0.02337,-9.018e-4 0.04661,-2.817e-4 0.07031,0 0.05417,6.435e-4 0.108011,0.00457 0.164062,0.011719 0.07727,0.019091 0.157092,0.030938 0.232422,0.056641 0.360263,0.1229297 0.640975,0.3944312 0.886719,0.6738281 0.08308,0.1023151 0.164902,0.2064338 0.244141,0.3125 V 6.7324219 c 0,-0.5488209 0.27749,-0.8242188 0.554687,-0.8242188 z M 12.939453,7.28125 c -0.116778,0.029208 -0.209351,0.079626 -0.300781,0.1582031 -0.1198,0.1204659 -0.224873,0.2537261 -0.316406,0.3964844 0.116614,0.1361624 0.199349,0.352944 0.207031,0.6503906 0.0042,0.1625744 -0.0011,0.3417549 0.08398,0.4863281 0.0066,0.00604 0.01063,0.018267 0.01953,0.017578 0.0047,-3.66e-4 -0.0036,-0.039635 0,-0.039063 0.03118,0.00495 0.05795,0.023174 0.08789,0.033203 0.07735,0.025911 0.184889,0.051429 0.261719,0.070312 0.194274,0.006 0.461971,0.1609263 0.644531,0.048828 0.09256,-0.1299289 0.180676,-0.263544 0.253906,-0.40625 0.02255,0.0064 0.147666,-0.3892668 0.08594,-0.2988281 C 13.803048,8.1281454 13.622178,7.8699085 13.421875,7.625 13.293456,7.5044488 13.142101,7.27142 12.939453,7.28125 Z M 9.3085938,7.6542969 c 0.3070314,-0.016838 0.6107184,0.3183906 0.5390624,0.9316406 -0.040134,0.3434773 -0.04598,0.6879416 -0.037109,1.0332031 0.00401,0.022319 0.00554,0.135908 0.052734,0.1601563 0.00859,0.00441 0.015811,-0.010559 0.025391,-0.011719 0.017321,-0.0021 0.035666,-0.00167 0.052734,0.00195 0.1328978,0.028169 0.2637168,0.064973 0.3964848,0.09375 0.44022,0.079507 0.886684,0.1163117 1.332031,0.1523438 1.094069,0.08852 1.00418,1.194389 -0.08984,1.105469 -0.50004,-0.04064 -1.000787,-0.08261 -1.49414,-0.177735 C 9.2901676,10.748491 8.7923605,10.544105 8.7011719,9.6464844 8.6910099,9.2196033 8.69855,8.7924758 8.7597656,8.3691406 8.8284923,7.8938668 9.0697912,7.667393 9.3085938,7.6542969 Z m 6.3339842,1.1816406 c 0.0051,0.020222 0.01105,0.035456 0.01953,0.044922 0.0057,0.00872 0.0079,0.013646 0.0098,0.015625 -0.0032,-0.00852 -0.01448,-0.033898 -0.0293,-0.060547 z" />
    <path
       d="m 25.572834,11.057749 -0.12275,0.190281 v -1.188001 h -1.358712 -1.359866 v 18.189756 h 1.459913 1.449139 v -7.986772 c 0.765742,0.701298 1.552264,1.049824 2.363027,1.043649 0.928896,0 1.62576,-0.309158 2.089823,-0.921299 0.465602,-0.613684 0.697634,-1.534982 0.697634,-2.759263 v -3.907509 c 0,-1.376736 -0.21664,-2.37214 -0.654537,-2.98621 -0.433664,-0.613685 -1.143611,-0.9209127 -2.13292,-0.9209127 -1.078581,0 -1.887805,0.4160707 -2.430751,1.2462807 m 0.283594,7.682246 c -0.144298,-0.39407 -0.21587,-1.202281 -0.21587,-2.428877 V 14.80817 c 0,-1.226982 0.07465,-2.03635 0.222796,-2.429263 0.145838,-0.392526 0.450595,-0.589754 0.909656,-0.589754 0.399033,0 0.683781,0.164807 0.853476,0.493649 0.170849,0.33 0.256273,0.882316 0.256273,1.660035 v 3.220491 c 0,0.838316 -0.07696,1.407228 -0.23357,1.710597 -0.154688,0.301824 -0.450595,0.453123 -0.887338,0.453123 -0.458291,0 -0.761125,-0.194913 -0.905423,-0.587053"
       id="path4" />
    <path
       d="m 36.470791,19.932368 0.122365,-0.145509 v 0.896597 h 2.816701 v -7.870597 c 0,-1.150561 -0.31861,-2.001228 -0.954292,-2.550842 -0.636451,-0.548456 -1.614216,-0.8255788 -2.931755,-0.8255788 -1.367177,0 -2.361873,0.2489474 -2.98601,0.7418248 -0.623369,0.492491 -0.93005,1.275228 -0.914659,2.344737 v 0.325754 h 2.909822 v -0.326912 c -0.02386,-0.451193 0.05464,-0.79007 0.232801,-1.01586 0.177006,-0.224246 0.457521,-0.337719 0.836545,-0.337719 0.298985,0 0.52486,0.10421 0.676085,0.314947 0.148915,0.208035 0.22549,0.520281 0.22549,0.930948 v 1.348561 h -0.880796 c -1.568041,0 -2.671634,0.269403 -3.310778,0.802807 -0.6403,0.536105 -0.95891,1.458561 -0.95891,2.77007 v 0.673895 c 0,0.913965 0.234725,1.630702 0.706099,2.147123 0.474453,0.515263 1.125911,0.775403 1.958608,0.775403 1.090894,0 1.910508,-0.332702 2.452684,-0.999649 z m 0.03309,-2.936421 c 0,0.739895 -0.105049,1.296456 -0.311684,1.668526 -0.207405,0.374772 -0.517165,0.560421 -0.933129,0.560421 -0.310145,0 -0.55449,-0.09726 -0.73265,-0.294491 -0.17739,-0.19607 -0.265893,-0.467403 -0.265893,-0.814386 v -0.678912 c 0,-0.724456 0.141989,-1.232386 0.422505,-1.526491 0.2809,-0.295263 0.762664,-0.442702 1.444136,-0.442702 h 0.376715 z"
       id="path5" />
    <path
       d="m 45.30946,11.637326 v 9.04586 h -1.449523 -1.458374 v -9.04586 H 40.873156 V 9.6851154 h 1.528407 V 7.8980979 c 0,-1.0795439 0.247038,-1.880807 0.738037,-2.4003158 0.494462,-0.5218246 1.254432,-0.7819649 2.281066,-0.7819649 0.547179,0 1.058956,0.031263 1.539181,0.089158 v 1.9004912 l -0.422506,-0.010807 c -0.446362,0 -0.763818,0.08993 -0.949289,0.2694035 -0.186241,0.1798596 -0.278592,0.4921053 -0.278592,0.9340351 v 1.7870175 h 1.650387 v 1.9522106 z"
       id="path6" />
    <path
       d="m 54.236401,20.795887 c -0.567958,0.08105 -1.214414,0.123895 -1.938598,0.123895 -0.919661,0 -1.608829,-0.272491 -2.072892,-0.820175 -0.461754,-0.541895 -0.694556,-1.359755 -0.694556,-2.441228 V 11.628063 H 47.978092 V 9.6739224 h 1.552263 V 3.4625891 l 2.908667,-2.2791228 v 8.4904561 h 1.797379 v 1.9541406 h -1.797379 v 6.045368 c 0,0.533018 0.0558,0.881544 0.168156,1.046737 0.111206,0.164807 0.351703,0.248947 0.724954,0.248947 0.326306,-0.01235 0.628755,-0.04593 0.904269,-0.101122 z"
       id="path7" />
    <path
       d="m 59.756,20.461505 h 2.415744 V 18.039961 H 59.756 Z"
       mask="url(#a)"
       id="path8"
       transform="translate(-3.8807568,0.22175753)" />
    <path
       d="m 63.727087,6.901786 h 1.96361 V 5.0178912 h -1.96361 z m 0.108512,13.567053 h 1.748125 V 9.6629789 h -1.748125 z"
       mask="url(#a)"
       id="path9"
       transform="translate(-3.8807568,0.22175753)" />
    <path
       d="m 74.885801,15.63293 v -0.92014 c 0,-3.572878 -0.766512,-5.263404 -3.839871,-5.263404 -3.732898,0 -4.096915,2.609509 -4.096915,5.777895 0,4.772842 1.816234,5.455614 4.096915,5.455614 2.261056,0 3.734437,-1.090737 3.756755,-3.487579 h -1.922437 c -0.06311,1.091509 -0.681857,2.054491 -1.876646,2.054491 -1.365253,0 -2.176017,-0.599403 -2.176017,-3.616877 z m -6.058216,-1.326562 c 0.02155,-2.995859 0.938901,-3.531578 2.047881,-3.531578 1.281368,0 2.154853,0.385578 2.154853,3.531578 z"
       mask="url(#a)"
       id="path10"
       transform="translate(-3.8807568,0.22175753)" />
  </g>
</svg>
